<mxfile host="app.diagrams.net" modified="2023-09-11T08:26:22.528Z" agent="Mozilla/5.0 (Macintosh; Intel Mac OS X 10_15_7) AppleWebKit/537.36 (KHTML, like Gecko) Chrome/114.0.0.0 Safari/537.36" version="21.6.9" etag="EyGILKispFMqgqWdCoiZ" type="github">
  <diagram name="第 1 页" id="hJ_DBoBk-C-FibVK5ZLd">
    <mxGraphModel>
      <root>
        <mxCell id="0" />
        <mxCell id="1" parent="0" />
      </root>
    </mxGraphModel>
  </diagram>
</mxfile>
